<?xml version="1.0" encoding="UTF-8"?>
<!DOCTYPE svg PUBLIC "-//W3C//DTD SVG 1.1//EN" "http://www.w3.org/Graphics/SVG/1.1/DTD/svg11.dtd">
<svg version="1.1" xmlns="http://www.w3.org/2000/svg" xmlns:xlink="http://www.w3.org/1999/xlink" x="0" y="0" width="1527" height="600" viewBox="0, 0, 1527, 600">
  <defs>
    <clipPath id="Clip_1">
      <path d="M1446.55,31.697 L1519.66,31.697 L1519.66,95.03 L1446.55,95.03 z"/>
    </clipPath>
  </defs>
  <g id="レイヤー_1">
    <g>
      <path d="M1152.622,530.047 C1152.244,530.17 1151.892,530.189 1151.652,530.074 C1092.224,501.546 993.811,525.232 858.914,557.697 C848.206,560.274 837.055,562.958 825.723,565.66 C767.347,579.575 706.361,587.9 640.14,590.203 C580.233,592.287 511.02,589.668 428.919,581.117 C340.468,571.905 250.493,557.183 183.264,544.98 C98.008,529.504 40.777,516.703 38.191,516.123 C29.906,514.263 26.404,512.4 28.867,511.623 C28.873,511.621 28.879,511.62 28.884,511.618 C31.354,510.839 38.898,511.477 47.131,513.362 C48.281,513.625 104.873,526.505 186.747,541.663 C252.185,553.778 339.971,568.43 426.888,577.746 C548.511,590.782 686.749,595.234 822.533,563.019 C834.021,560.294 845.319,557.578 856.176,554.977 C927.384,537.918 986.264,523.808 1039.502,517.843 C1093.164,511.829 1129.641,515.701 1154.157,527.809 C1154.64,528.048 1154.467,528.747 1153.774,529.371 C1153.425,529.686 1153.009,529.921 1152.622,530.047" fill="#A17A51"/>
      <path d="M1154.981,521.014 C1154.589,521.141 1154.224,521.157 1153.977,521.029 C1094.921,490.516 997.918,511.467 862.713,540.669 C851.954,542.992 840.733,545.416 829.33,547.852 C771.731,560.157 711.028,566.823 644.723,567.279 C584.559,567.693 514.903,563.077 432.273,552.079 C343.213,540.226 252.884,522.773 185.546,508.538 C100.225,490.502 41.946,475.673 39.366,475.014 C30.368,472.717 24.769,470.063 27,469.121 C29.201,468.173 38.394,469.329 47.33,471.654 C49.723,472.276 245.689,522.912 429.782,548.068 C552.367,564.82 691.44,573.321 826.092,544.757 C837.664,542.302 849.053,539.86 859.972,537.517 C928.589,522.799 990.075,509.61 1043.04,505.143 C1096.202,500.66 1132.256,505.656 1156.598,518.603 C1157.097,518.868 1156.911,519.626 1156.186,520.294 C1155.82,520.632 1155.385,520.883 1154.981,521.014" fill="#A17A51"/>
      <path d="M1156.705,510.317 C1156.295,510.45 1155.915,510.461 1155.658,510.317 C1096.578,477.311 1000.247,495.159 863.325,520.529 C852.383,522.557 840.95,524.675 829.328,526.801 C771.75,537.331 710.454,542.085 642.994,540.325 C581.508,538.72 510.05,531.629 425.104,517.525 C231.517,485.382 30.734,427.772 20.341,424.773 C10.245,421.86 3.492,418.494 5.427,417.301 C7.393,416.114 17.233,417.577 27.295,420.537 C30.737,421.547 232.096,480.343 422.082,512.681 C548.238,534.154 690.585,547.628 825.997,523.133 C837.804,520.997 849.422,518.867 860.539,516.829 C930.243,504.052 992.031,492.725 1045.177,490.035 C1098.226,487.35 1134.093,493.694 1158.414,507.69 C1158.934,507.989 1158.735,508.82 1157.973,509.543 C1157.587,509.91 1157.129,510.179 1156.705,510.317" fill="#A17A51"/>
      <path d="M1159.085,501.192 C1158.661,501.329 1158.269,501.336 1158.005,501.178 C1099.307,466.141 999.16,482.128 867.13,503.206 C856.15,504.959 844.663,506.793 832.986,508.628 C776.034,517.581 714.992,520.631 647.491,516.918 C585.814,513.525 514.004,504.277 428.615,487.523 C233.816,449.304 33.144,385.318 22.78,381.995 C12.007,378.542 4.42,374.519 6.026,373.065 C7.655,371.618 17.824,373.328 28.591,376.848 C32.121,377.998 233.75,443.429 425.25,481.918 C552.208,507.435 695.165,525.261 829.647,504.449 C841.521,502.612 853.205,500.775 864.369,499.02 C934.292,488.027 995.792,478.357 1048.667,477.204 C1101.254,476.056 1136.736,483.522 1160.88,498.377 C1161.416,498.707 1161.202,499.6 1160.407,500.371 C1160.004,500.763 1159.527,501.049 1159.085,501.192" fill="#A17A51"/>
      <path d="M1161.537,492.208 C1161.099,492.35 1160.695,492.352 1160.424,492.18 C1102.15,455.15 1003.269,468.414 871.253,486.121 C860.256,487.596 848.737,489.141 837.028,490.682 C780.716,498.095 720.001,499.458 652.588,493.8 C590.86,488.62 518.879,477.213 433.276,457.816 C237.84,413.531 37.79,343.276 27.482,339.638 C16.089,335.617 7.706,330.882 8.973,329.131 C10.239,327.373 20.705,329.338 32.12,333.447 C35.698,334.731 237.127,406.737 429.593,451.398 C557.015,480.965 700.248,503.151 833.7,485.974 C845.616,484.441 857.342,482.902 868.533,481.433 C938.555,472.244 999.715,464.218 1052.273,464.581 C1104.376,464.941 1139.465,473.504 1163.419,489.202 C1163.97,489.563 1163.741,490.521 1162.913,491.341 C1162.491,491.758 1161.995,492.06 1161.537,492.208" fill="#A17A51"/>
      <path d="M227.169,407.951 C205.183,392.528 194.396,360.855 190.882,348.449 L191.279,347.01 C191.835,344.99 190.648,342.903 188.629,342.347 L188.263,342.246 C186.244,341.69 184.156,342.876 183.6,344.895 L152.454,458.004 C145.868,449.781 133.068,445.008 119.021,446.584 C99.661,448.758 85.275,462.164 86.887,476.528 C88.5,490.892 105.501,500.774 124.861,498.6 C143.232,496.538 157.124,484.359 157.116,470.847 C157.208,470.652 157.288,470.448 157.348,470.232 L178.395,393.796 C183.58,399.153 197.117,412.945 206.988,421.277 C219.437,431.786 199.292,453.385 199.292,453.385 C212.377,448.727 254.866,427.38 227.169,407.951" fill="#734B23"/>
      <path d="M405.169,527.15 L404.413,450.99 L404.757,450.955 L404.495,424.582 L302.818,436.728 L302.995,454.603 L303.079,463.101 L303.737,529.327 C298.184,526.138 290.37,525.371 282.571,527.839 C270.005,531.815 262.217,542.678 265.199,552.103 C268.181,561.528 280.747,565.945 293.313,561.968 C305.725,558.041 313.579,547.393 310.725,538.052 L309.973,462.265 L397.519,451.827 L398.181,518.424 C392.628,515.236 384.867,514.468 377.069,516.936 C364.503,520.912 356.743,531.775 359.725,541.2 C362.707,550.624 375.231,555.042 387.798,551.066 C400.21,547.138 408.022,536.491 405.169,527.15" fill="#886138"/>
      <path d="M560.658,536.012 L560.26,441.971 C560.253,440.149 558.631,438.743 556.809,438.75 L555.489,438.756 C553.666,438.764 552.304,440.182 552.312,442.005 L552.668,526.144 C546.233,522.519 537.629,521.604 528.833,524.332 C514.659,528.729 505.814,540.91 509.111,551.541 C512.408,562.172 526.627,567.226 540.801,562.829 C554.801,558.487 563.454,546.55 560.658,536.012" fill="#734B23"/>
      <path d="M753.131,488.571 C737.991,477.951 730.563,456.14 728.143,447.597 L728.416,446.606 C728.799,445.215 727.982,443.778 726.592,443.395 L726.34,443.325 C724.949,442.942 723.512,443.759 723.129,445.15 L701.681,523.039 C697.146,517.376 688.332,514.089 678.658,515.175 C665.327,516.672 655.42,525.903 656.53,535.794 C657.641,545.685 669.348,552.49 682.68,550.993 C695.331,549.573 704.897,541.187 704.891,531.882 C704.955,531.748 705.01,531.607 705.051,531.459 L719.545,478.823 C723.115,482.512 732.437,492.01 739.234,497.748 C747.806,504.985 733.935,519.858 733.935,519.858 C742.945,516.65 772.203,501.95 753.131,488.571" fill="#886138"/>
      <path d="M942.103,509.362 L949.286,453.578 L949.541,453.587 L952.028,434.269 L876.421,432.826 L874.736,445.919 L873.934,452.144 L867.689,500.651 C863.951,497.755 858.313,496.4 852.358,497.413 C842.762,499.045 835.962,506.2 837.186,513.397 C838.41,520.594 847.153,525.101 856.748,523.469 C866.226,521.857 873.052,514.866 871.914,507.744 L879.061,452.232 L944.158,453.489 L937.878,502.27 C934.14,499.374 928.541,498.024 922.586,499.037 C912.991,500.668 906.211,507.826 907.435,515.023 C908.66,522.22 917.372,526.723 926.967,525.091 C936.445,523.479 943.241,516.484 942.103,509.362" fill="#734B23"/>
      <path d="M1053.367,488.357 L1065.27,421.822 C1065.501,420.533 1064.537,419.329 1063.248,419.099 L1062.314,418.932 C1061.025,418.701 1059.878,419.527 1059.647,420.817 L1048.997,480.345 C1044.917,476.949 1038.954,475.188 1032.381,475.977 C1021.791,477.248 1013.96,484.714 1014.913,492.656 C1015.867,500.599 1025.264,506.014 1035.854,504.743 C1046.315,503.487 1053.979,496.169 1053.367,488.357" fill="#886138"/>
      <path d="M1512.553,51.51 L1464.869,34.154 L1467.169,27.835 L1514.853,45.19 z" fill="#E6E6E5"/>
      <path d="M1460.114,38.279 L1460.114,38.279 C1458.21,37.586 1457.229,35.481 1457.921,33.577 L1461.267,24.385 C1461.96,22.481 1464.065,21.5 1465.969,22.193 C1467.873,22.886 1468.854,24.991 1468.161,26.894 L1464.816,36.087 C1464.123,37.99 1462.018,38.972 1460.114,38.279" fill="#DFB66B"/>
      <path d="M1514.118,57.935 L1514.118,57.935 C1512.214,57.242 1511.233,55.137 1511.926,53.233 L1515.271,44.041 C1515.964,42.137 1518.069,41.156 1519.973,41.849 C1521.877,42.542 1522.858,44.647 1522.165,46.55 L1518.82,55.743 C1518.127,57.646 1516.022,58.628 1514.118,57.935" fill="#DFB66B"/>
      <path d="M1505.652,70.468 L1457.968,53.112 L1460.268,46.793 L1507.952,64.148 z" fill="#E6E6E5"/>
      <path d="M1452.926,57.133 L1452.926,57.133 C1451.181,56.498 1450.281,54.568 1450.916,52.823 L1454.471,43.057 C1455.106,41.311 1457.036,40.412 1458.781,41.047 L1458.781,41.047 C1460.526,41.682 1461.426,43.612 1460.791,45.357 L1457.236,55.123 C1456.601,56.868 1454.671,57.768 1452.926,57.133" fill="#DFB66B"/>
      <path d="M1506.93,76.789 L1506.93,76.789 C1505.185,76.154 1504.285,74.224 1504.92,72.479 L1508.475,62.712 C1509.11,60.967 1511.04,60.068 1512.785,60.703 C1514.53,61.338 1515.43,63.268 1514.795,65.013 L1511.24,74.779 C1510.605,76.524 1508.675,77.424 1506.93,76.789" fill="#DFB66B"/>
      <path d="M1497.028,88.8 L1452.791,72.699 L1455.091,66.379 L1499.328,82.48 z" fill="#E6E6E5"/>
      <path d="M1448.533,76.354 L1448.533,76.354 C1446.788,75.719 1445.888,73.789 1446.523,72.044 L1450.078,62.278 C1450.713,60.532 1452.643,59.633 1454.388,60.268 C1456.133,60.903 1457.033,62.833 1456.398,64.578 L1452.843,74.344 C1452.208,76.089 1450.278,76.989 1448.533,76.354" fill="#DFB66B"/>
      <path d="M1498.515,94.546 L1498.515,94.546 C1496.77,93.911 1495.87,91.981 1496.505,90.236 L1500.06,80.469 C1500.695,78.724 1502.625,77.825 1504.37,78.46 C1506.115,79.095 1507.015,81.025 1506.38,82.77 L1502.825,92.536 C1502.19,94.281 1500.26,95.181 1498.515,94.546" fill="#DFB66B"/>
      <g clip-path="url(#Clip_1)">
        <path d="M1515.722,55.996 L1514.573,55.578 C1512.987,55 1512.467,52.95 1513.044,51.363 L1513.875,49.08 L1466.458,31.821 L1465.627,34.105 C1465.05,35.691 1463.305,36.918 1461.718,36.34 L1460.569,35.922 C1458.983,35.345 1458.433,33.283 1459.011,31.697 L1458.174,33.995 C1457.597,35.581 1458.18,37.55 1459.767,38.127 L1460.916,38.546 C1462.502,39.123 1464.213,37.989 1464.791,36.403 L1465.455,34.578 L1512.872,51.837 L1512.208,53.661 C1511.63,55.248 1512.184,57.206 1513.77,57.783 L1514.919,58.201 C1516.506,58.779 1518.247,57.656 1518.824,56.07 L1519.661,53.772 C1519.083,55.358 1517.309,56.573 1515.722,55.996" fill="#E6E6E5"/>
        <path d="M1508.324,74.533 L1507.75,74.324 C1506.163,73.746 1505.566,71.908 1506.143,70.322 L1506.851,68.377 L1458.883,50.918 L1458.175,52.863 C1457.598,54.449 1455.907,55.455 1454.32,54.877 L1453.746,54.668 C1452.159,54.091 1451.533,52.242 1452.11,50.655 L1451.274,52.953 C1450.696,54.54 1451.357,56.296 1452.943,56.874 L1453.518,57.083 C1455.104,57.66 1456.761,56.747 1457.339,55.161 L1458.08,53.124 L1506.049,70.583 L1505.307,72.62 C1504.73,74.206 1505.36,75.952 1506.947,76.529 L1507.521,76.738 C1509.108,77.316 1510.795,76.414 1511.372,74.827 L1512.209,72.529 C1511.631,74.116 1509.911,75.11 1508.324,74.533" fill="#E6E6E5"/>
        <path d="M1499.872,92.686 L1499.109,92.408 C1497.575,91.85 1497.206,89.733 1497.764,88.198 L1498.375,86.521 L1454.266,70.467 L1453.655,72.144 C1453.097,73.678 1451.424,75.052 1449.89,74.494 L1449.127,74.216 C1447.593,73.658 1447.032,71.471 1447.59,69.936 L1446.754,72.234 C1446.195,73.769 1446.79,75.863 1448.324,76.422 L1449.087,76.699 C1450.622,77.258 1452.26,75.976 1452.819,74.442 L1453.463,72.672 L1497.572,88.727 L1496.928,90.496 C1496.369,92.031 1496.772,94.055 1498.307,94.614 L1499.069,94.891 C1500.604,95.45 1502.434,94.238 1502.993,92.704 L1503.829,90.405 C1503.271,91.94 1501.406,93.244 1499.872,92.686" fill="#E6E6E5"/>
      </g>
      <path d="M1354.862,596.579 C1329.178,596.579 1305.084,588.816 1295.916,585.479 C1293.93,584.757 1292.595,584.254 1292.063,584.042 C1291.55,583.88 1290.2,583.451 1288.151,582.706 C1277.947,578.992 1252.009,568.327 1231.613,549.558 C1219.803,538.69 1211.642,526.748 1207.358,514.063 C1202.133,498.586 1202.66,482.008 1208.927,464.787 C1221.673,429.771 1241.111,419.649 1256.731,411.516 C1271.784,403.677 1282.658,398.015 1282.773,371.187 C1282.865,349.692 1285.258,334.942 1290.532,323.364 C1296.573,310.101 1306.702,300.958 1321.495,295.41 C1329.762,292.31 1338.548,290.804 1348.353,290.804 C1361.57,290.804 1376.964,293.613 1395.412,299.394 L1395.633,299.465 L1395.841,299.551 C1426.655,312.378 1444.907,326.09 1455.024,344.011 C1471.783,373.696 1459.531,398.637 1435.979,426.951 C1418.823,447.575 1423.512,458.902 1430.005,474.581 C1436.743,490.856 1445.127,511.106 1432.383,546.121 C1426.113,563.343 1415.86,576.383 1401.908,584.88 C1390.505,591.824 1376.58,595.718 1360.519,596.452 C1358.67,596.536 1356.766,596.579 1354.862,596.579" fill="#A17A51"/>
      <path d="M1296.941,582.66 C1294.773,581.871 1293.428,581.36 1293.081,581.217 C1292.722,581.103 1291.348,580.677 1289.178,579.887 C1279.148,576.236 1253.656,565.765 1233.645,547.351 C1222.212,536.829 1214.323,525.309 1210.201,513.103 C1205.198,498.288 1205.718,482.379 1211.747,465.814 C1224.093,431.894 1242.959,422.071 1258.118,414.177 C1273.501,406.166 1285.651,399.84 1285.774,371.201 C1285.864,350.152 1288.174,335.782 1293.264,324.607 C1298.958,312.105 1308.537,303.473 1322.55,298.219 C1341.15,291.245 1363.345,292.491 1394.515,302.257 L1394.603,302.285 L1394.688,302.32 C1424.844,314.875 1442.647,328.187 1452.413,345.486 C1468.327,373.676 1456.431,397.673 1433.673,425.032 C1415.358,447.05 1420.599,459.706 1427.234,475.731 C1433.772,491.522 1441.91,511.175 1429.564,545.095 C1423.534,561.661 1413.705,574.184 1400.348,582.318 C1389.345,589.019 1375.906,592.746 1360.384,593.456 C1333.222,594.698 1306.975,586.312 1296.943,582.661 C1296.942,582.66 1296.942,582.66 1296.941,582.66" fill="#A17A51"/>
      <path d="M1432.109,423.732 C1456.235,394.729 1465.317,372.481 1450.641,346.485 C1440.481,328.487 1421.466,315.671 1393.906,304.198 C1365.42,295.272 1342.616,292.867 1323.263,300.123 C1295.311,310.604 1287.968,333.485 1287.806,371.21 C1287.555,429.937 1238.229,399.001 1213.657,466.511 C1184.912,545.486 1293.765,579.335 1293.765,579.335 C1293.765,579.335 1398.908,623.374 1427.652,544.399 C1452.224,476.889 1394.553,468.881 1432.109,423.732" fill="#F8AD4E"/>
      <path d="M1374.08,533.313 L1261.821,492.454 C1260.457,491.958 1259.753,490.449 1260.25,489.085 L1264.934,476.216 C1265.43,474.851 1266.939,474.148 1268.303,474.644 L1380.562,515.503 C1381.927,516 1382.63,517.508 1382.133,518.873 L1377.45,531.742 C1376.953,533.106 1375.444,533.81 1374.08,533.313" fill="#40210D"/>
      <path d="M1352.478,509.185 L1293.878,487.856 C1292.926,487.51 1292.436,486.457 1292.782,485.506 C1293.128,484.554 1294.181,484.063 1295.133,484.409 L1353.733,505.738 C1354.685,506.084 1355.175,507.137 1354.829,508.089 C1354.482,509.041 1353.43,509.531 1352.478,509.185" fill="#FFFFFF"/>
      <path d="M1349.76,516.654 L1291.16,495.325 C1290.208,494.979 1289.718,493.926 1290.064,492.975 L1290.064,492.975 C1290.411,492.023 1291.463,491.532 1292.415,491.878 L1351.015,513.207 C1351.967,513.553 1352.457,514.606 1352.111,515.558 C1351.764,516.51 1350.712,517 1349.76,516.654" fill="#FFFFFF"/>
      <path d="M1347.042,524.122 L1288.442,502.794 C1287.49,502.448 1287,501.395 1287.346,500.444 L1287.346,500.444 C1287.692,499.492 1288.745,499.001 1289.697,499.347 L1348.297,520.676 C1349.248,521.022 1349.739,522.075 1349.393,523.027 L1349.393,523.027 C1349.046,523.979 1347.994,524.469 1347.042,524.122" fill="#FFFFFF"/>
      <path d="M1453.135,83.234 L1451.009,92.87 L1484.76,105.155 L1490.567,96.858 z" fill="#40210D"/>
      <path d="M1483.457,89.314 L1480.164,88.177 C1478.223,87.506 1477.128,85.515 1477.73,83.751 L1494.574,34.42 C1495.177,32.656 1497.257,31.761 1499.198,32.431 L1502.491,33.569 C1504.432,34.239 1508.012,37.135 1507.41,38.899 L1490.185,88.092 C1489.583,89.855 1485.398,89.984 1483.457,89.314 M1468.453,83.821 L1465.237,82.711 C1463.342,82.058 1460.229,79.332 1460.832,77.568 L1477.27,28.089 C1477.873,26.325 1482.402,26.322 1484.297,26.975 L1487.513,28.085 C1489.408,28.738 1490.465,30.716 1489.862,32.48 L1472.995,81.803 C1472.392,83.566 1470.348,84.474 1468.453,83.821 M1518.095,26.947 L1505.571,8.941 C1504.044,6.732 1501.389,5.766 1498.799,6.475 L1476.987,11.985 C1474.424,12.687 1472.399,14.902 1471.806,17.651 L1453.397,82.022 C1452.648,85.498 1453.097,88.425 1456.171,89.543 L1470.501,94.759 L1485.454,100.202 C1488.528,101.32 1490.753,99.368 1492.413,96.224 L1518.423,34.613 C1519.736,32.126 1519.607,29.132 1518.095,26.947" fill="#5E3719"/>
      <path d="M1485.274,104.691 L1468.715,98.664 L1451.519,92.405 L1343.982,375.97 L1364.999,383.62 L1386.017,391.27 z" fill="#030000"/>
      <path d="M1478.092,125.499 L1444.196,113.162 L1444.614,112.013 L1478.51,124.35 z" fill="#FFFFFF"/>
      <path d="M1463.193,168.221 L1428.148,155.466 L1428.566,154.317 L1463.611,167.072 z" fill="#FFFFFF"/>
      <path d="M1456.083,187.755 L1420.463,174.791 L1420.882,173.642 L1456.501,186.606 z" fill="#FFFFFF"/>
      <path d="M1449.966,206.348 L1413.772,193.174 L1413.981,192.6 L1450.175,205.774 z" fill="#FFFFFF"/>
      <path d="M1444.268,223.792 L1406.925,210.2 L1407.343,209.051 L1444.686,222.643 z" fill="#FFFFFF"/>
      <path d="M1438.413,239.879 L1401.07,226.287 L1401.488,225.138 L1438.831,238.73 z" fill="#FFFFFF"/>
      <path d="M1432.349,256.539 L1394.432,242.738 L1394.85,241.589 L1432.767,255.39 z" fill="#FFFFFF"/>
      <path d="M1428.114,269.962 L1389.622,255.952 L1390.04,254.803 L1428.532,268.813 z" fill="#FFFFFF"/>
      <path d="M1422.886,284.325 L1383.819,270.106 L1384.239,268.957 L1423.304,283.176 z" fill="#FFFFFF"/>
      <path d="M1418.077,297.539 L1379.01,283.32 L1379.429,282.171 L1418.495,296.39 z" fill="#FFFFFF"/>
      <path d="M1414.26,309.812 L1374.619,295.384 L1375.037,294.235 L1414.678,308.663 z" fill="#FFFFFF"/>
      <path d="M1410.078,321.302 L1370.437,306.874 L1370.646,306.299 L1410.287,320.728 z" fill="#FFFFFF"/>
      <path d="M1405.687,333.367 L1365.471,318.73 L1365.89,317.581 L1406.105,332.218 z" fill="#FFFFFF"/>
      <path d="M1403.125,342.194 L1362.335,327.348 L1362.753,326.199 L1403.543,341.045 z" fill="#FFFFFF"/>
      <path d="M1399.361,352.535 L1358.571,337.689 L1358.989,336.54 L1399.779,351.386 z" fill="#FFFFFF"/>
      <path d="M1396.016,361.727 L1354.651,346.672 L1354.86,346.097 L1396.224,361.153 z" fill="#FFFFFF"/>
      <path d="M1393.506,368.621 L1352.716,353.775 L1352.925,353.2 L1393.715,368.046 z" fill="#FFFFFF"/>
      <path d="M1390.317,379.171 L1348.378,363.906 L1348.796,362.757 L1390.735,378.022 z" fill="#FFFFFF"/>
      <path d="M1470.355,146.755 L1435.885,134.21 L1436.303,133.061 L1470.773,145.607 z" fill="#FFFFFF"/>
      <path d="M1392.493,419.104 C1399.667,399.397 1389.505,377.607 1369.798,370.434 C1350.091,363.261 1328.3,373.422 1321.128,393.129 C1313.955,412.836 1324.116,434.626 1343.823,441.799 C1363.53,448.972 1385.32,438.811 1392.493,419.104" fill="#5E3719"/>
      <path d="M1346.141,435.43 C1329.978,429.547 1321.615,411.611 1327.498,395.448 C1333.38,379.284 1351.317,370.92 1367.48,376.803 C1383.644,382.686 1392.008,400.623 1386.125,416.786 C1380.242,432.95 1362.306,441.313 1346.141,435.43" fill="#40210D"/>
      <path d="M1465.727,69.996 L1300.228,507.396" fill-opacity="0" stroke="#FFE8D4" stroke-width="1.356" stroke-linecap="round" stroke-linejoin="round"/>
      <path d="M1476.825,52.084 L1307.431,510.019" fill-opacity="0" stroke="#FFE8D4" stroke-width="1.356" stroke-linecap="round" stroke-linejoin="round"/>
      <path d="M1486.958,35.135 L1465.849,97.413 L1314.605,512.63" fill-opacity="0" stroke="#FFE8D4" stroke-width="1.356" stroke-linecap="round" stroke-linejoin="round"/>
      <path d="M1490.58,79.042 L1335.63,520.282" fill-opacity="0" stroke="#FFE8D4" stroke-width="1.356" stroke-linecap="round" stroke-linejoin="round"/>
      <path d="M1492.785,58.614 L1327.851,517.451" fill-opacity="0" stroke="#FFE8D4" stroke-width="1.356" stroke-linecap="round" stroke-linejoin="round"/>
      <path d="M1495.576,38.271 L1471.714,99.55 L1320.677,514.839" fill-opacity="0" stroke="#FFE8D4" stroke-width="1.356" stroke-linecap="round" stroke-linejoin="round"/>
    </g>
  </g>
</svg>
